<svg width="1300" height="867" viewBox="0 0 1300 867" fill="none" xmlns="http://www.w3.org/2000/svg">
<g clip-path="url(#clip0_896_7)">
<rect width="1300" height="867" fill="#01DB86"/>
<g clip-path="url(#clip1_896_7)">
<rect width="3805.55" height="2262.19" transform="translate(2110.9 -1637.79) rotate(88.1903)" fill="#01DB86"/>
<path d="M1423.03 -657.746C1498.06 -578.217 1587.9 -500.135 1683.21 -417.315C1829.15 -290.596 1994.53 -146.955 2138.17 32.7962C2150.36 48.1482 2162.49 63.7522 2174.31 79.5497L2622.4 4.32024C2571.44 -76.8783 2516.71 -154.31 2457.91 -227.906C2290.98 -436.779 2110.76 -593.468 1951.47 -731.692C1864.11 -807.464 1781.69 -879.022 1720.92 -943.643C1527.39 -1149.05 1415.86 -1440.51 1422.21 -1724.68L1012.73 -1655.95C1014.6 -1592.64 1020.67 -1529.27 1030.8 -1466.42C1078.88 -1165.77 1217.3 -876.243 1423.03 -657.746Z" fill="#F8FFE9"/>
<path d="M935.645 2217.71C958.943 2213.73 921.783 1809.83 919.602 1769.17C906.562 1531.23 829.357 1303.25 690.379 1110.36C537.515 898.143 306.538 772.228 129.196 584.179C86.3244 538.639 44.8048 491.822 4.5125 443.696L-457.822 521.304C-342.366 679.829 -221.062 838.661 -78.5391 973.754C56.4655 1101.63 216.247 1201.82 338.397 1343.57C444.085 1466.31 492.346 1623.58 512.432 1782.61C519.392 1837.68 552.444 2281.56 527.427 2287.26C660.572 2256.92 800.2 2240.46 935.645 2217.71Z" fill="#AFFB42"/>
<path d="M892.528 -148.414C992.413 -42.456 1100.51 51.4698 1205.22 142.473C1333.65 254.058 1466.45 369.458 1568.72 497.243C1730.95 700.362 1845.47 969.529 1908.8 1297.15C1955.61 1538.62 1971.73 1792.03 1981.32 2042.46L2389.05 1973.85C2378.69 1723.38 2360.25 1468.62 2311.37 1215.77C2234.91 821.798 2092.57 492.275 1888.37 236.386C1763.08 79.4107 1615.85 -48.5418 1473.41 -172.184C1376.47 -256.45 1276.32 -343.328 1190.48 -434.562C942.167 -698.132 773.254 -1044.52 714.625 -1409.58C704.384 -1473.66 697.526 -1538.15 694.213 -1602.59L287.347 -1534.32C292.091 -1469.8 299.507 -1405.45 309.807 -1341.63C381.346 -895.238 588.3 -471.48 892.528 -148.414Z" fill="#F8FFE9"/>
<path d="M999.077 961.492C1086.45 1070.9 1151.33 1232.46 1191.77 1441.59C1234.01 1659.92 1245.83 1904.75 1254.63 2164.16L1662.46 2095.71C1653.44 1838.38 1639.53 1593.46 1594.31 1360.34C1540.92 1084.63 1448.22 862.714 1318.85 700.664C1234.83 595.499 1118.63 494.622 995.32 387.561C890.079 296.034 770.7 192.419 659.883 74.7269C311.904 -294.617 75.2931 -778.762 -6.50961 -1288.57C-16.6853 -1352.37 -24.5341 -1416.55 -29.9316 -1481.09L-435.682 -1413.08C-429.601 -1348.65 -421.598 -1284.56 -411.298 -1220.74C-316.526 -629.862 -41.8731 -68.3423 362.115 360.653C487.044 493.35 614.72 604.226 727.532 702.181C835.792 796.543 938.483 885.479 999.077 961.492Z" fill="#AFFB42"/>
</g>
</g>
<defs>
<clipPath id="clip0_896_7">
<rect width="1300" height="867" fill="white"/>
</clipPath>
<clipPath id="clip1_896_7">
<rect width="3805.55" height="2262.19" fill="white" transform="translate(2110.9 -1637.79) rotate(88.1903)"/>
</clipPath>
</defs>
</svg>
